# xmcd
#
# Track frame offsets:
#	150
#	14298
#	27703
#	40398
#	53900
#	65984
#	80371
#	93306
#	106227
#	120300
#	133922
#	149570
#	161207
#	172124
#	185569
#	199406
#	214395
#	225426
#	240297
#	252737
#	269000
#	281030
#	298456
#	313536
#
# Disc length: 4322 seconds
#
# Revision: 1
# Processed by: cddbd v1.4PL0 Copyright (c) Steve Scherf et al.
# Submitted via: EasyCDDAExtractor 5.0.6
#
DISCID=8510e018
DTITLE=Mel Tillis - Beyond The Sunset
DYEAR=1900
DGENRE=Gospel
TTITLE0=Beyond The Sunset
TTITLE1=On The Wings Of A Dove
TTITLE2=He
TTITLE3=Mansion Over The Hilltop
TTITLE4=Softly And Tenderly
TTITLE5=His Eye Is On The Sparrow
TTITLE6=Peace In The Valley
TTITLE7=The Father's Son
TTITLE8=Satisfied Mind
TTITLE9=Precious Memories
TTITLE10=Just A Closer Walk With Thee
TTITLE11=I Believe
TTITLE12=Church In The Wildwood
TTITLE13=My Friend
TTITLE14=Take My Hand, Precious Lord
TTITLE15=He'll Understand And Say Well Done
TTITLE16=This Ole House
TTITLE17=What A Friend We Have In jesus
TTITLE18=I'll Fly Away
TTITLE19=How Great Thou Art
TTITLE20=I Saw The Light
TTITLE21=The Old Rugged Cross
TTITLE22=Life's RailwayTo Heaven
TTITLE23=Standing On The Promises
EXTD=
EXTT0=
EXTT1=
EXTT2=
EXTT3=
EXTT4=
EXTT5=
EXTT6=
EXTT7=
EXTT8=
EXTT9=
EXTT10=
EXTT11=
EXTT12=
EXTT13=
EXTT14=
EXTT15=
EXTT16=
EXTT17=
EXTT18=
EXTT19=
EXTT20=
EXTT21=
EXTT22=
EXTT23=
PLAYORDER=
